<svg xmlns="http://www.w3.org/2000/svg" width="44.284" height="44.284" viewBox="0 0 44.284 44.284">
    <path d="m4.56 27.248 1.583-.371zm0-11.83 1.583.371zm33.545 0 1.583-.371zm0 11.83 1.583.371zM27.248 38.105l-.371-1.583zm-11.83 0-.371 1.583zm0-33.545-.371-1.583zm11.83 0 .371-1.583zm14.5 39.487a1.626 1.626 0 1 0 2.3-2.3zM6.143 26.877a24.276 24.276 0 0 1 0-11.088l-3.166-.743a27.527 27.527 0 0 0 0 12.573zm30.379-11.088a24.273 24.273 0 0 1 0 11.088l3.166.743a27.527 27.527 0 0 0 0-12.573zm-9.645 20.733a24.273 24.273 0 0 1-11.088 0l-.743 3.166a27.527 27.527 0 0 0 12.573 0zM15.789 6.143a24.276 24.276 0 0 1 11.088 0l.743-3.166a27.527 27.527 0 0 0-12.573 0zm0 30.379a12.943 12.943 0 0 1-9.646-9.646l-3.166.743a16.2 16.2 0 0 0 12.069 12.069zm11.83 3.166a16.2 16.2 0 0 0 12.069-12.069l-3.166-.743a12.943 12.943 0 0 1-9.646 9.646zm-.742-33.545a12.943 12.943 0 0 1 9.646 9.646l3.166-.743a16.2 16.2 0 0 0-12.07-12.069zM15.046 2.977A16.2 16.2 0 0 0 2.977 15.046l3.166.743a12.944 12.944 0 0 1 9.646-9.646zM33.8 36.1l7.945 7.945 2.3-2.3L36.1 33.8z" transform="translate(-1.24 -1.24)" style="fill:#fff;stroke:#fff;stroke-width:2px"/>
</svg>
